name processed_emg_signals
nRows=75
nColumns=7
 
endheader
time	RGLTMED	RRF	RADDLONG	RST	RTA	RGM
2.94	0.2109420898133736	0.823012205294445	0.4734606074593632	0.066457581977845	0.1464744988374335	0.4423520403329664
2.9410000000000003	0.21040442655748	0.8237261842618567	0.4762426964555362	0.0661712331476582	0.1478626607400647	0.4424631940774461
2.942	0.2098793144660712	0.8244842645708762	0.479045827403616	0.0658711928739081	0.1492623766661408	0.4425585651300758
2.943	0.20936646998296	0.8252845268803055	0.4818668495652743	0.0655578066175577	0.1506723376490939	0.4426395030616701
2.944	0.2088656095844918	0.8261248817958832	0.4847025587654363	0.0652314584548031	0.1520912009074917	0.4427074305415469
2.945	0.2083764509075552	0.8270030733280779	0.4875497020990718	0.0648925715814145	0.1535175908745508	0.4427638391654838
2.946	0.2078987138775395	0.8279166827494323	0.4904049827839743	0.0645416087648663	0.1549501003032795	0.4428102849720449
2.947	0.2074321218324153	0.8288631328464853	0.4932650651543019	0.064179072742546	0.1563872914480132	0.4428483836506244
2.948	0.2069764026392531	0.8298396925614442	0.4961265797888631	0.0638055065645471	0.1578276973229451	0.442879805446079
2.949	0.2065312898002082	0.8308434820192714	0.4989861287675685	0.0634214938795457	0.1592698230378606	0.4429062697665483
2.95	0.2060965235448122	0.8318714779354076	0.5018402910474448	0.0630276591624261	0.1607121472110246	0.4429295395031874
2.951	0.205671851905694	0.8329205193986156	0.5046856279492038	0.0626246678823342	0.1621531234586129	0.4429514150728656
2.952	0.2052570317745842	0.8339873140224839	0.5075186887438505	0.0622132266098251	0.1635911819597978	0.4429737281973535
2.953	0.2048518299352404	0.8350684444573462	0.5103360163284774	0.061794083061792	0.1650247310960821	0.4429983354350196
2.954	0.20445602406939	0.836160375252662	0.513134152979039	0.0613680260828164	0.1664521591631996	0.443027111483695
2.955	0.2040694037315453	0.8372594600576824	0.5159096461684044	0.0609358855615233	0.1678718361535743	0.4430619422755772
2.956	0.2036917712881257	0.8383619491465283	0.5186590544368517	0.0604985322804388	0.1692821156070409	0.4431047178876651
2.957	0.2033229428161066	0.8394639972518814	0.5213789533030491	0.0600568776980667	0.1706813365273867	0.4431573252928596
2.958	0.2029627489563744	0.8405616716890086	0.5240659412028578	0.0596118736617325	0.1720678253621788	0.4432216409787777
2.959	0.202611035717114	0.8416509607500681	0.5267166454438592	0.0591645120501008	0.173439898043244	0.4432995234626272
2.96	0.2022676652224083	0.8427277823459015	0.5293277281631371	0.0587158243441655	0.1747958620853988	0.443392805731333
2.961	0.2019325164014181	0.8437879928715267	0.5318958922755902	0.0582668811257824	0.1761340187411287	0.443503287636976
2.962	0.2016054856139813	0.8448273962699071	0.534417887398978	0.057818791502787	0.1774526652092021	0.443632728277843
2.963	0.2012864872087446	0.8458417532675208	0.5368905157410763	0.0573727024600733	0.1787500968952634	0.4437828383954212
2.964	0.2009754540102598	0.846826790754734	0.539310637933595	0.0569297981360585	0.1800246097224272	0.4439552728174196
2.965	0.2006723377322106	0.8477782112819758	0.5416751787966003	0.0564912990243028	0.1812745024893704	0.4441516229759762
2.966	0.2003771093136503	0.8486917026413532	0.5439811330173263	0.0560584611000668	0.1824980792730732	0.4443734095291183
2.967	0.2000897591756015	0.8495629475015023	0.5462255707267124	0.0556325748717928	0.1836936518726295	0.4446220751125472
2.968	0.1998102973956307	0.8503876330616922	0.5484056429572312	0.0552149643574904	0.1848595422900627	0.4448989772476063
2.969	0.1995387537982476	0.8511614606910345	0.5505185869652167	0.0548069859860335	0.185994085243616	0.4452053814306064
2.97	0.1992751779601584	0.8518801555181957	0.5525617314012166	0.0544100274236006	0.187095630708521	0.4455424544277767
2.971	0.1990196391296162	0.8525394759382114	0.554532501311996	0.0540255063255549	0.1881625464798904	0.4459112577993792
2.972	0.1987722260599372	0.8531352230044162	0.5564284229582619	0.0536548690143401	0.1891932207520542	0.4463127416757921
2.973	0.1985330467580986	0.8536632496758293	0.5582471284335387	0.0532995890839617	0.1901860647082657	0.4467477388075971
2.974	0.1983022281497171	0.8541194698927382	0.5599863600703701	0.0529611659319225	0.1911395151143574	0.4472169589107262
2.975	0.1980799156624327	0.8544998674550393	0.5616439746214863	0.0526411232192865	0.1920520369096309	0.4477209833266282
2.976	0.1978662727291154	0.854800504678589	0.5632179472042345	0.0523410072597456	0.1929221257882741	0.4482602600161445
2.977	0.1976614802126644	0.8550175308066211	0.5647063749965395	0.0520623853383462	0.1937483107647038	0.4488350989046198
2.978	0.1974657357538988	0.8551471901541035	0.5661074806738514	0.0518068439608448	0.1945291567166885	0.4494456675943175
2.979	0.1972792530434715	0.8551858299656043	0.5674196155768431	0.051575987034708	0.1952632669003524	0.450091987459136
2.98	0.197102261019386	0.8551299079693933	0.5686412626019377	0.051371433982995	0.19594928543154	0.4507739301352236
2.981	0.1969350029917649	0.8549759996138191	0.5697710388087328	0.0511948177926227	0.1965858997281946	0.4514912144205256
2.982	0.1967777356975281	0.854720804975271	0.5708076977415251	0.0510477829986043	0.1971718429083752	0.4522434035951255
2.983	0.1966307282883334	0.8543611553298034	0.5717501314646593	0.0509319836061992	0.1977058961384606	0.4530299031738938
2.984	0.196494261256029	0.8538940193823107	0.5725973723135284	0.0508490809529203	0.1981868909255894	0.4538499591019475
2.985	0.1963686253004977	0.853316509147982	0.5733485943636567	0.0508007415127096	0.1986137113481961	0.4547026564027568
2.986	0.1962541201450883	0.8526258854818128	0.5740031146203658	0.0507886346445733	0.1989852962180358	0.4555869182876205
2.987	0.196151053304957	0.8518195632521666	0.574560393930334	0.0508144302881506	0.1993006411671124	0.4565015057342163
2.988	0.1960597388142063	0.8508951161545141	0.5750200376154438	0.0508797966088121	0.1995588006528439	0.4574450175406866
2.989	0.1959804959174398	0.8498502811619602	0.5753817958282168	0.050986397594735	0.1997588898749931	0.4584158908603692
2.99	0.1959136477317813	0.8486829626080714	0.5756455636267818	0.051135890608524	0.1999000865978465	0.4594124022209665
2.991	0.1958595198852891	0.8473912358973509	0.5758113807676067	0.0513299238957928	0.1999816328710648	0.4604326690302882
2.992	0.1958184391377057	0.8459733508375283	0.5758794312138954	0.0515701340533497	0.2000028366427646	0.461474651569512
2.993	0.1957907319895125	0.8444277345883799	0.5758500423583792	0.0518581434594603	0.199963073258837	0.4625361554730845
2.994	0.1957767232847187	0.8427529942219051	0.5757236839607432	0.0521955576690773	0.1998617868434828	0.4636148346932054
2.995	0.1957767348131906	0.8409479188893975	0.5755009668005633	0.0525839627769256	0.1996984915574895	0.4647081949451809
2.996	0.1957910839174785	0.8390114815916145	0.5751826410483967	0.0530249227516624	0.1994727727324735	0.4658135976283848
2.997	0.1958200821094068	0.8369428405484599	0.5747695943588227	0.0535199767446085	0.1991842878808065	0.46692826421604
2.998	0.1958640337006688	0.8347413401661831	0.5742628496904911	0.054070636376811	0.1988327675820469	0.4680492811053959
2.999	0.1959232344522736	0.8324065116018541	0.5736635628598659	0.0546783830085805	0.1984180162472279	0.4691736049183852
3.0	0.1959979702464517	0.8299380729264848	0.572973019835844	0.055344664995987	0.1979399127626776	0.4702980682412022
3.001	0.1960885157853256	0.827335928890098	0.5721926337837422	0.0560708949390633	0.1973984110151723	0.4714193857900515
3.0020000000000002	0.1961951333199803	0.824600170294573	0.5713239418678228	0.0568584469266193	0.1967935403000444	0.472534160988784
3.003	0.1963180714136054	0.821731072982511	0.5703686018217762	0.0577086537826662	0.196125405613788	0.473638892942957
3.004	0.1964575637421394	0.8187290964535874	0.5693283882978291	0.0586228043193773	0.1953941878330553	0.4747299837934974
3.005	0.1966138279357114	0.8155948821215958	0.56820518900516	0.0596021406015491	0.1946001437826647	0.4758037464317483
3.0060000000000002	0.1967870644639051	0.8123292512271136	0.5670010006493701	0.0606478552273049	0.1937436061963935	0.4768564125561796
3.007	0.1969774555676683	0.8089332024216201	0.5657179246850467	0.0617610886298004	0.1928249835753183	0.4778841410494327
3.008	0.1971851642405666	0.8054079090389338	0.5643581628950936	0.0629429264045002	0.1918447599492157	0.478883026653017
3.009	0.1974103332617885	0.8017547160694973	0.5629240128106657	0.0641943966666047	0.1908034945469268	0.4798491089155305
3.0100000000000002	0.1976530842832621	0.7979751368533713	0.5614178629859575	0.065516467442995	0.1897018213816844	0.4807783813891605
3.011	0.1979135169731946	0.7940708495077681	0.559842188141722	0.0669100441032045	0.1885404487573354	0.4816668010483992
3.012	0.1981917082180726	0.7900436931056688	0.5581995441902633	0.0683759668336539	0.1873201587012352	0.4825102979037635
3.013	0.1984877113851364	0.7858956636228221	0.5564925631543277	0.0699150081596086	0.1860418063293646	0.4833047847827864
3.0140000000000002	0.1988015556467459	0.7816289096714716	0.5547239479909153	0.0715278705190733	0.1847063191487325	0.4840461672493586
